<?xml version="1.0" encoding="utf-8"?>
<!-- Generator: Adobe Illustrator 20.1.0, SVG Export Plug-In . SVG Version: 6.00 Build 0)  -->
<svg version="1.1" xmlns="http://www.w3.org/2000/svg" xmlns:xlink="http://www.w3.org/1999/xlink" x="0px" y="0px"
	 viewBox="0 0 647.8 289.9" style="enable-background:new 0 0 647.8 289.9;" xml:space="preserve">
<style type="text/css">
	.st0{display:none;}
	.st1{display:inline;fill:#609D56;}
	.st2{opacity:0.6;fill:#FFFF88;stroke:#A8A05A;stroke-miterlimit:10;}
	.st3{fill:#565656;}
	.st4{fill:#6D6D6D;}
	.st5{opacity:0.6;}
	.st6{fill:#A3A3A3;}
	.st7{opacity:0.1;fill:#FFFFFF;}
	.st8{fill:#444444;}
	.st9{fill:#FFFFFF;}
</style>
<g id="Layer_2" class="st0">
	<rect x="-172.1" y="-51.5" class="st1" width="1011.5" height="460.2"/>
</g>
<g id="Layer_3">
	<path class="st2" d="M98.2,58.4C97.1,30.2,69.5,26.8,56.9,26c-12.6,0.8-40.2,4.2-41.3,32.3c-1.1,28.1,18.6,47.9,22.6,52.5
		c3.9,4.6,1.2,18,2.6,19.4c1.4,1.4,16.2,2.1,16.2,2.1s13.4-0.8,15.2-2.1s-0.4-14.8,3.5-19.4C79.6,106.3,99.4,86.5,98.2,58.4z"/>
	<path class="st3" d="M48.2,132.4c0,0-2.4-16.9,1.3-18.9c3.7-2,3.7-4.6,3.7-4.6S39.9,83.3,40.7,83.7s12.7,25.1,12.7,25.1
		s-0.1,2.7-3.8,4.9c-3.7,2.2-1.3,18.7-1.3,18.7H48.2z"/>
	<path class="st3" d="M65.6,132.4c0,0,2.4-16.9-1.3-18.9s-3.7-4.6-3.7-4.6S73.9,83.3,73,83.7s-12.7,25.1-12.7,25.1s0.1,2.7,3.8,4.9
		c3.7,2.2,1.3,18.7,1.3,18.7H65.6z"/>
	<path class="st4" d="M75,150.5c-0.6,0.2-0.7-3,0-3.2s1-3.4,0-4s-1-3,0-3.6c1-0.6,0.4-2.8,0-2.8s-1.1-2.2,0-3.4s0-3.4,0-3.4H56.9
		H38.8c0,0-1.1,2.2,0,3.4s0.4,3.4,0,3.4s-1,2.2,0,2.8c1,0.6,1,3,0,3.6s-0.7,3.8,0,4s0.6,3.4,0,3.2s-1.2,2.2,0,2.2h18.1H75
		C76.2,152.7,75.6,150.3,75,150.5z"/>
	<g class="st5">
		
			<image style="overflow:visible;" width="144" height="144" xlink:href="B92ECB7FBC6412EB.png"  transform="matrix(1 0 0 1 -15.81 -3)">
		</image>
	</g>
	<g class="st5">
		
			<image style="overflow:visible;" width="111" height="114" xlink:href="B92ECB7FBC6412EE.png"  transform="matrix(1 0 0 1 1.19 19)">
		</image>
	</g>
	<g class="st5">
		
			<image style="overflow:visible;" width="96" height="96" xlink:href="B92ECB7FBC6412ED.png"  transform="matrix(1 0 0 1 9.19 27)">
		</image>
	</g>
	<path class="st6" d="M38.8,131.6c0,0-0.3,1.8,3.9,2.1c4.1,0.2,30.4,0,30.4,0v-1.3c0,0-28.9,0.1-31-0.8S38.8,131.6,38.8,131.6z"/>
	<path class="st6" d="M39,144.2c0,0-0.3,1.8,3.9,2.1c4.1,0.2,30.4,0,30.4,0V145c0,0-28.9,0.1-31-0.8S39,144.2,39,144.2z"/>
	<path class="st6" d="M39.8,150.9c0,0-0.3,0.8,3.9,0.9c4.1,0.1,30.4,0,30.4,0v-0.6c0,0-28.9,0.1-31-0.3S39.8,150.9,39.8,150.9z"/>
	<path class="st6" d="M39,138c0,0-0.3,1.3,3.9,1.4c4.1,0.2,30.4,0,30.4,0v-0.9c0,0-28.9,0.1-31-0.5C40.2,137.4,39,138,39,138z"/>
	<rect x="40.7" y="130.2" class="st7" width="31.4" height="4.7"/>
	<rect x="40.7" y="136.4" class="st7" width="31.4" height="4.7"/>
	<rect x="40.7" y="143.2" class="st7" width="31.4" height="4.7"/>
	<rect x="40.7" y="150.3" class="st7" width="31.4" height="2.4"/>
	<path class="st8" d="M40.7,152.7c0,0,5.9,10.7,16.2,10.5s15.2-10.5,15.2-10.5H40.7z"/>
</g>
<g id="Layer_1">
	<g>
		<path class="st9" d="M38.8,162.3c0-2,0.6-3.7,1.7-5.2c1.1-1.4,2.9-2.2,5.3-2.2h21.6c0.8,0,1.6,0.2,2.4,0.5
			c0.9,0.3,1.7,0.8,2.4,1.5s1.4,1.4,1.9,2.3c0.5,0.9,0.8,1.9,0.8,3v104.9c0,2.4-0.7,4.2-2,5.4c-1.3,1.2-3.2,1.8-5.6,1.8H45.8
			c-4.6,0-7-2.4-7-7.2V162.3z"/>
		<path class="st9" d="M140,272.5c-0.6-1.1-1.2-2.2-1.8-3.3c-0.6-1.1-1.1-2.3-1.5-3.4c-8.1-21.3-16.2-42.5-24.2-63.4
			c-8-21-16.1-42.1-24.2-63.4c0-0.3,0-0.6-0.1-0.8c-0.1-0.2-0.1-0.5-0.1-0.8c0-1.8,1.2-2.6,3.5-2.6h30.3c2.4,0,4,1.2,4.9,3.6
			l28.8,85.7l26.6-85.7c0.9-2.4,2.6-3.6,5.2-3.6h30.6c1.4,0,2.5,0.3,3.1,0.8c0.6,0.5,0.9,1.2,0.9,2.1c0,0.5,0,0.8-0.1,1v0.3L205,187
			l12.6,37l30.5-85.6c0.9-2.4,2.6-3.6,5.2-3.6H283c1.4,0,2.5,0.3,3.1,0.8c0.6,0.5,0.9,1.2,0.9,2.1c0,0.5,0,0.8-0.1,1v0.3
			c-4.3,11-8.6,22.1-13.1,33c-4.5,11-8.9,22-13.4,32.9c-4.5,11-8.9,22-13.4,33c-4.4,11-8.7,22-12.9,33c-0.3,0.7-0.8,1.5-1.7,2.3
			c-0.9,0.8-1.9,1.3-3.2,1.3h-0.3h-22.8c-1.4,0-2.4-0.3-3.2-0.8c-0.7-0.5-1.2-1.2-1.6-2.1l-14.9-39.2c-2.1,5.7-4.2,11.3-6.3,16.8
			c-2.1,5.5-4.1,11.1-6.2,16.8c-0.3,0.9-0.7,1.8-1.1,2.8c-0.4,1-0.9,1.9-1.5,2.7c-0.6,0.8-1.2,1.6-1.9,2.1c-0.7,0.6-1.6,0.8-2.5,0.8
			h-0.3h-22.8C141.9,274.5,140.6,273.8,140,272.5z"/>
		<path class="st9" d="M283.6,214.8c0-5.8,0.7-11.3,2.2-16.7c1.5-5.3,3.5-10.3,6.2-14.8c2.7-4.5,5.9-8.7,9.6-12.4
			c3.7-3.7,7.9-6.9,12.5-9.6c4.6-2.6,9.5-4.7,14.8-6.1c5.3-1.4,10.8-2.2,16.6-2.2c8.5,0,16.5,1.6,24,4.8c7.5,3.2,14,7.5,19.6,13.1
			c5.6,5.6,9.9,12.1,13.2,19.6c3.2,7.5,4.8,15.6,4.8,24.3c0,5.8-0.7,11.3-2.2,16.6c-1.5,5.3-3.5,10.2-6.2,14.8
			c-2.7,4.6-5.9,8.7-9.6,12.5c-3.7,3.7-7.9,6.9-12.5,9.6c-4.6,2.7-9.5,4.7-14.7,6.2c-5.2,1.4-10.7,2.2-16.4,2.2
			c-5.8,0-11.3-0.7-16.6-2.2c-5.3-1.4-10.2-3.5-14.8-6.2c-4.6-2.7-8.7-5.9-12.5-9.6c-3.7-3.7-6.9-7.9-9.6-12.5
			c-2.7-4.6-4.7-9.5-6.2-14.8C284.3,226.1,283.6,220.6,283.6,214.8z M318,214.8c0,4.1,0.6,8,1.9,11.6c1.3,3.6,3.1,6.7,5.5,9.4
			s5.2,4.7,8.6,6.3c3.4,1.5,7.1,2.3,11.3,2.3c4.1,0,7.8-0.8,11.1-2.3c3.3-1.5,6.1-3.6,8.4-6.3c2.3-2.6,4-5.8,5.3-9.4
			c1.2-3.6,1.8-7.5,1.8-11.6c0-4-0.6-7.8-1.8-11.5c-1.2-3.6-3-6.8-5.3-9.6c-2.3-2.8-5.1-4.9-8.4-6.5c-3.3-1.6-7-2.4-11.1-2.4
			c-4.2,0-8,0.8-11.3,2.4c-3.4,1.6-6.2,3.8-8.6,6.5c-2.4,2.8-4.2,6-5.5,9.6C318.6,207,318,210.8,318,214.8z"/>
		<path class="st9" d="M422.2,214.8c0-5.8,0.7-11.3,2.2-16.7c1.5-5.3,3.5-10.3,6.2-14.8c2.7-4.5,5.9-8.7,9.6-12.4
			c3.7-3.7,7.9-6.9,12.5-9.6c4.6-2.6,9.5-4.7,14.8-6.1c5.3-1.4,10.8-2.2,16.6-2.2c8.5,0,16.5,1.6,24,4.8c7.5,3.2,14,7.5,19.6,13.1
			c5.6,5.6,9.9,12.1,13.2,19.6c3.2,7.5,4.8,15.6,4.8,24.3c0,5.8-0.7,11.3-2.2,16.6c-1.5,5.3-3.5,10.2-6.2,14.8
			c-2.7,4.6-5.9,8.7-9.6,12.5c-3.7,3.7-7.9,6.9-12.5,9.6c-4.6,2.7-9.5,4.7-14.7,6.2c-5.2,1.4-10.7,2.2-16.4,2.2
			c-5.8,0-11.3-0.7-16.6-2.2c-5.3-1.4-10.2-3.5-14.8-6.2c-4.6-2.7-8.7-5.9-12.5-9.6c-3.7-3.7-6.9-7.9-9.6-12.5
			c-2.7-4.6-4.7-9.5-6.2-14.8C423,226.1,422.2,220.6,422.2,214.8z M456.6,214.8c0,4.1,0.6,8,1.9,11.6c1.3,3.6,3.1,6.7,5.5,9.4
			s5.2,4.7,8.6,6.3c3.4,1.5,7.1,2.3,11.3,2.3c4.1,0,7.8-0.8,11.1-2.3c3.3-1.5,6.1-3.6,8.4-6.3c2.3-2.6,4-5.8,5.3-9.4
			c1.2-3.6,1.8-7.5,1.8-11.6c0-4-0.6-7.8-1.8-11.5c-1.2-3.6-3-6.8-5.3-9.6c-2.3-2.8-5.1-4.9-8.4-6.5c-3.3-1.6-7-2.4-11.1-2.4
			c-4.2,0-8,0.8-11.3,2.4c-3.4,1.6-6.2,3.8-8.6,6.5c-2.4,2.8-4.2,6-5.5,9.6C457.2,207,456.6,210.8,456.6,214.8z"/>
		<path class="st9" d="M575.9,156.7c0-5.8,1.3-11.3,3.8-16.5c2.5-5.1,5.9-9.6,10.1-13.5c4.2-3.9,9-6.9,14.5-9.1
			c5.5-2.2,11.2-3.3,17.1-3.3h1.9c2.1,0,3.8,0.6,4.9,1.9c1.2,1.3,1.7,3.1,1.7,5.3v18c0,2.3-0.6,4.3-1.8,5.8
			c-1.2,1.5-2.8,2.3-4.8,2.3h-1.9c-1.3,0-2.6,0.2-3.8,0.7c-1.2,0.5-2.3,1.1-3.2,1.9c-0.9,0.8-1.7,1.8-2.3,2.9
			c-0.6,1.1-0.8,2.3-0.8,3.6v10.8h14.8c2.1,0,3.8,0.6,4.9,1.7c1.2,1.2,1.7,3,1.7,5.5V192c0,2.7-0.6,4.7-1.7,5.9
			c-1.2,1.3-2.8,1.9-4.9,1.9h-14.8v67.5c0,2.4-0.8,4.2-2.4,5.4c-1.6,1.2-3.3,1.8-5.2,1.8h-20.3c-2.3,0-4.1-0.7-5.4-2.1
			c-1.4-1.4-2-3.1-2-5.1v-67.5h-9.7c-2.2,0-4-0.6-5.3-1.9c-1.4-1.3-2-3.2-2-5.9v-17.2c0-2.5,0.7-4.3,2-5.5c1.3-1.2,3.1-1.7,5.3-1.7
			h9.7V156.7z"/>
	</g>
</g>
</svg>
